<svg width="1009" height="1181" viewBox="0 0 1009 1181" fill="none" xmlns="http://www.w3.org/2000/svg">
<mask id="mask0_126_66" style="mask-type:alpha" maskUnits="userSpaceOnUse" x="-92" y="0" width="1101" height="1181">
<path d="M499.051 0.427002C717.897 161.187 997.039 366.307 1008.57 373.448L417.835 1180.36L-91.6866 807.335L499.051 0.427002Z" fill="url(#paint0_linear_126_66)"/>
</mask>
<g mask="url(#mask0_126_66)">
<path d="M661.917 581.438C595.29 672.447 460.801 691.516 390.451 640.013C320.1 588.509 254.749 484.08 326.235 386.435C361.659 338.048 357.644 244.867 434.764 213.026C513.27 180.613 599.477 264.164 634.965 290.145C705.316 341.649 728.545 490.429 661.917 581.438Z" fill="#969696"/>
<g filter="url(#filter0_f_126_66)">
<path d="M656.691 575.936C585.235 673.54 466.644 694.013 406.174 649.742C345.703 605.472 293.306 510.549 364.762 412.944C400.172 364.576 401.171 275.104 473.354 239.684C546.834 203.629 619.571 277.31 650.076 299.642C710.546 343.913 728.147 478.331 656.691 575.936Z" fill="#969696"/>
</g>
<g filter="url(#filter1_f_126_66)">
<path d="M654.525 578.892C574.436 688.288 433.96 705.7 359.407 651.12C284.854 596.539 217.234 483.638 297.323 374.242C337.01 320.031 326.478 211.22 410.756 173.992C496.549 136.096 593.621 230.062 631.23 257.595C705.783 312.175 734.613 469.496 654.525 578.892Z" fill="#969696"/>
</g>
<g filter="url(#filter2_f_126_66)">
<path d="M636.452 585.054C519.284 706.73 340.684 747.817 253.429 683.938C166.174 620.059 122.035 482.449 218.085 351.251C265.683 286.236 231.772 133.036 331.773 87.6031C433.571 41.3538 539.485 146.356 583.501 178.58C670.756 242.459 772.185 444.099 636.452 585.054Z" fill="#969696"/>
</g>
<g filter="url(#filter3_f_126_66)">
<path d="M567.825 604.707C464.404 745.974 262.95 785.287 177.641 722.832C92.3314 660.377 54.1458 519.046 157.567 377.78C208.817 307.775 238.487 198.942 341.859 146.872C447.088 93.867 549.346 198.299 592.38 229.805C677.689 292.26 671.246 463.441 567.825 604.707Z" fill="#969696"/>
</g>
<g filter="url(#filter4_f_126_66)">
<path d="M493.521 634.76C386.644 780.746 179.653 822.245 92.3983 758.366C5.14367 694.487 -33.3395 549.151 73.5368 403.165C126.499 330.822 157.506 218.605 263.88 164.466C372.166 109.354 476.606 216.372 520.621 248.596C607.876 312.475 600.397 488.774 493.521 634.76Z" fill="#969696"/>
</g>
<g filter="url(#filter5_f_126_66)">
<path d="M587.781 535.117C494.265 662.854 298.774 688.644 211.52 624.765C124.265 560.886 78.8015 425.085 172.318 297.347C218.66 234.047 251.718 140.197 350.227 96.801C450.506 52.6258 556.767 157.157 600.782 189.381C688.037 253.26 681.298 407.379 587.781 535.117Z" fill="#969696"/>
</g>
</g>
<defs>
<filter id="filter0_f_126_66" x="326.275" y="225.912" width="380.993" height="450.062" filterUnits="userSpaceOnUse" color-interpolation-filters="sRGB">
<feFlood flood-opacity="0" result="BackgroundImageFix"/>
<feBlend mode="normal" in="SourceGraphic" in2="BackgroundImageFix" result="shape"/>
<feGaussianBlur stdDeviation="2" result="effect1_foregroundBlur_126_66"/>
</filter>
<filter id="filter1_f_126_66" x="247.201" y="151.112" width="469.278" height="544.031" filterUnits="userSpaceOnUse" color-interpolation-filters="sRGB">
<feFlood flood-opacity="0" result="BackgroundImageFix"/>
<feBlend mode="normal" in="SourceGraphic" in2="BackgroundImageFix" result="shape"/>
<feGaussianBlur stdDeviation="7" result="effect1_foregroundBlur_126_66"/>
</filter>
<filter id="filter2_f_126_66" x="143.901" y="56.0176" width="578.691" height="677.802" filterUnits="userSpaceOnUse" color-interpolation-filters="sRGB">
<feFlood flood-opacity="0" result="BackgroundImageFix"/>
<feBlend mode="normal" in="SourceGraphic" in2="BackgroundImageFix" result="shape"/>
<feGaussianBlur stdDeviation="10" result="effect1_foregroundBlur_126_66"/>
</filter>
<filter id="filter3_f_126_66" x="41.185" y="78.1147" width="664.169" height="727.458" filterUnits="userSpaceOnUse" color-interpolation-filters="sRGB">
<feFlood flood-opacity="0" result="BackgroundImageFix"/>
<feBlend mode="normal" in="SourceGraphic" in2="BackgroundImageFix" result="shape"/>
<feGaussianBlur stdDeviation="27" result="effect1_foregroundBlur_126_66"/>
</filter>
<filter id="filter4_f_126_66" x="-125.383" y="14.9587" width="839.831" height="906.474" filterUnits="userSpaceOnUse" color-interpolation-filters="sRGB">
<feFlood flood-opacity="0" result="BackgroundImageFix"/>
<feBlend mode="normal" in="SourceGraphic" in2="BackgroundImageFix" result="shape"/>
<feGaussianBlur stdDeviation="67" result="effect1_foregroundBlur_126_66"/>
</filter>
<filter id="filter5_f_126_66" x="58.5551" y="24.0786" width="665.718" height="696.281" filterUnits="userSpaceOnUse" color-interpolation-filters="sRGB">
<feFlood flood-opacity="0" result="BackgroundImageFix"/>
<feBlend mode="normal" in="SourceGraphic" in2="BackgroundImageFix" result="shape"/>
<feGaussianBlur stdDeviation="31" result="effect1_foregroundBlur_126_66"/>
</filter>
<linearGradient id="paint0_linear_126_66" x1="680.867" y1="651.726" x2="311.558" y2="399.009" gradientUnits="userSpaceOnUse">
<stop stop-color="#C4C4C4"/>
<stop offset="1" stop-color="#C4C4C4" stop-opacity="0"/>
</linearGradient>
</defs>
</svg>
