<svg width="1033" height="1290" viewBox="0 0 1033 1290" fill="none" xmlns="http://www.w3.org/2000/svg">
<mask id="mask0_16_575" style="mask-type:alpha" maskUnits="userSpaceOnUse" x="-118" y="85" width="991" height="1047">
<path d="M-117.731 938.415L461.298 1131.82L792.079 681.318L872.229 508.334L735.932 156.041L476.645 85.5225L136.005 550.814L-117.731 938.415Z" fill="url(#paint0_linear_16_575)"/>
</mask>
<g mask="url(#mask0_16_575)">
</g>
<mask id="mask1_16_575" style="mask-type:alpha" maskUnits="userSpaceOnUse" x="-92" y="32" width="1101" height="1181">
<path d="M499.051 32.427C717.897 193.187 997.039 398.307 1008.57 405.448L417.835 1212.36L-91.6866 839.335L499.051 32.427Z" fill="url(#paint1_linear_16_575)"/>
</mask>
<g mask="url(#mask1_16_575)">
<path d="M661.917 613.438C595.29 704.447 460.801 723.516 390.451 672.013C320.1 620.509 254.749 516.08 326.235 418.435C361.659 370.048 357.644 276.867 434.764 245.026C513.27 212.613 599.477 296.164 634.965 322.145C705.316 373.649 728.545 522.429 661.917 613.438Z" fill="url(#paint2_linear_16_575)"/>
<g filter="url(#filter0_f_16_575)">
<path d="M656.691 607.936C585.235 705.54 466.644 726.013 406.174 681.742C345.703 637.472 293.306 542.549 364.762 444.944C400.172 396.576 401.171 307.104 473.354 271.684C546.834 235.629 619.571 309.31 650.076 331.642C710.546 375.913 728.147 510.331 656.691 607.936Z" fill="url(#paint3_linear_16_575)"/>
</g>
<g filter="url(#filter1_f_16_575)">
<path d="M654.525 610.892C574.436 720.288 433.96 737.7 359.407 683.12C284.854 628.539 217.234 515.638 297.323 406.242C337.01 352.031 326.478 243.22 410.756 205.992C496.549 168.096 593.621 262.062 631.23 289.595C705.783 344.175 734.613 501.496 654.525 610.892Z" fill="url(#paint4_linear_16_575)"/>
</g>
<g filter="url(#filter2_f_16_575)">
<path d="M636.452 617.054C519.284 738.73 340.684 779.817 253.429 715.938C166.174 652.059 122.035 514.449 218.085 383.251C265.683 318.236 231.772 165.036 331.773 119.603C433.571 73.3537 539.485 178.356 583.501 210.58C670.756 274.459 772.185 476.099 636.452 617.054Z" fill="url(#paint5_linear_16_575)"/>
</g>
<g filter="url(#filter3_f_16_575)">
<path d="M567.825 636.707C464.404 777.974 262.95 817.287 177.641 754.832C92.3314 692.377 54.1458 551.046 157.567 409.78C208.817 339.775 238.487 230.942 341.859 178.872C447.088 125.867 549.346 230.299 592.38 261.805C677.689 324.26 671.246 495.441 567.825 636.707Z" fill="url(#paint6_linear_16_575)"/>
</g>
<g filter="url(#filter4_f_16_575)">
<path d="M493.521 666.76C386.644 812.746 179.653 854.245 92.3983 790.366C5.14367 726.487 -33.3395 581.151 73.5368 435.165C126.499 362.822 157.506 250.605 263.88 196.466C372.166 141.354 476.606 248.372 520.621 280.596C607.876 344.475 600.397 520.774 493.521 666.76Z" fill="url(#paint7_linear_16_575)"/>
</g>
<g filter="url(#filter5_f_16_575)">
<path d="M587.781 567.117C494.265 694.854 298.774 720.644 211.52 656.765C124.265 592.886 78.8015 457.085 172.318 329.347C218.66 266.047 251.718 172.197 350.227 128.801C450.506 84.6258 556.767 189.157 600.782 221.381C688.037 285.26 681.298 439.379 587.781 567.117Z" fill="url(#paint8_linear_16_575)"/>
</g>
</g>
<defs>
<filter id="filter0_f_16_575" x="326.275" y="257.912" width="380.993" height="450.062" filterUnits="userSpaceOnUse" color-interpolation-filters="sRGB">
<feFlood flood-opacity="0" result="BackgroundImageFix"/>
<feBlend mode="normal" in="SourceGraphic" in2="BackgroundImageFix" result="shape"/>
<feGaussianBlur stdDeviation="2" result="effect1_foregroundBlur_16_575"/>
</filter>
<filter id="filter1_f_16_575" x="247.201" y="183.112" width="469.278" height="544.031" filterUnits="userSpaceOnUse" color-interpolation-filters="sRGB">
<feFlood flood-opacity="0" result="BackgroundImageFix"/>
<feBlend mode="normal" in="SourceGraphic" in2="BackgroundImageFix" result="shape"/>
<feGaussianBlur stdDeviation="7" result="effect1_foregroundBlur_16_575"/>
</filter>
<filter id="filter2_f_16_575" x="143.9" y="88.0176" width="578.691" height="677.802" filterUnits="userSpaceOnUse" color-interpolation-filters="sRGB">
<feFlood flood-opacity="0" result="BackgroundImageFix"/>
<feBlend mode="normal" in="SourceGraphic" in2="BackgroundImageFix" result="shape"/>
<feGaussianBlur stdDeviation="10" result="effect1_foregroundBlur_16_575"/>
</filter>
<filter id="filter3_f_16_575" x="41.1851" y="110.115" width="664.169" height="727.458" filterUnits="userSpaceOnUse" color-interpolation-filters="sRGB">
<feFlood flood-opacity="0" result="BackgroundImageFix"/>
<feBlend mode="normal" in="SourceGraphic" in2="BackgroundImageFix" result="shape"/>
<feGaussianBlur stdDeviation="27" result="effect1_foregroundBlur_16_575"/>
</filter>
<filter id="filter4_f_16_575" x="-125.383" y="46.9586" width="839.831" height="906.474" filterUnits="userSpaceOnUse" color-interpolation-filters="sRGB">
<feFlood flood-opacity="0" result="BackgroundImageFix"/>
<feBlend mode="normal" in="SourceGraphic" in2="BackgroundImageFix" result="shape"/>
<feGaussianBlur stdDeviation="67" result="effect1_foregroundBlur_16_575"/>
</filter>
<filter id="filter5_f_16_575" x="58.5552" y="56.0786" width="665.718" height="696.281" filterUnits="userSpaceOnUse" color-interpolation-filters="sRGB">
<feFlood flood-opacity="0" result="BackgroundImageFix"/>
<feBlend mode="normal" in="SourceGraphic" in2="BackgroundImageFix" result="shape"/>
<feGaussianBlur stdDeviation="31" result="effect1_foregroundBlur_16_575"/>
</filter>
<linearGradient id="paint0_linear_16_575" x1="507.027" y1="556.029" x2="489.619" y2="238.827" gradientUnits="userSpaceOnUse">
<stop stop-color="#C4C4C4"/>
<stop offset="1" stop-color="#C4C4C4" stop-opacity="0"/>
</linearGradient>
<linearGradient id="paint1_linear_16_575" x1="680.867" y1="683.726" x2="311.558" y2="431.009" gradientUnits="userSpaceOnUse">
<stop stop-color="#C4C4C4"/>
<stop offset="1" stop-color="#C4C4C4" stop-opacity="0"/>
</linearGradient>
<linearGradient id="paint2_linear_16_575" x1="624.076" y1="312.176" x2="371.042" y2="657.803" gradientUnits="userSpaceOnUse">
<stop stop-color="#0239FE"/>
<stop offset="1" stop-color="#0285FE"/>
</linearGradient>
<linearGradient id="paint3_linear_16_575" x1="641.774" y1="323.568" x2="388.843" y2="669.055" gradientUnits="userSpaceOnUse">
<stop stop-color="#0239FE"/>
<stop offset="1" stop-color="#0285FE"/>
</linearGradient>
<linearGradient id="paint4_linear_16_575" x1="618.604" y1="278.114" x2="335.118" y2="665.337" gradientUnits="userSpaceOnUse">
<stop stop-color="#0239FE"/>
<stop offset="1" stop-color="#0285FE"/>
</linearGradient>
<linearGradient id="paint5_linear_16_575" x1="590.521" y1="213.036" x2="233.193" y2="701.123" gradientUnits="userSpaceOnUse">
<stop stop-color="#0239FE"/>
<stop offset="1" stop-color="#0285FE"/>
</linearGradient>
<linearGradient id="paint6_linear_16_575" x1="562.87" y1="237.311" x2="181.777" y2="757.86" gradientUnits="userSpaceOnUse">
<stop stop-color="#0239FE"/>
<stop offset="1" stop-color="#0285FE"/>
</linearGradient>
<linearGradient id="paint7_linear_16_575" x1="490.453" y1="255.524" x2="96.6284" y2="793.463" gradientUnits="userSpaceOnUse">
<stop stop-color="#0239FE"/>
<stop offset="1" stop-color="#0285FE"/>
</linearGradient>
<linearGradient id="paint8_linear_16_575" x1="563.348" y1="191.363" x2="218.751" y2="662.059" gradientUnits="userSpaceOnUse">
<stop stop-color="#0239FE"/>
<stop offset="1" stop-color="#0285FE"/>
</linearGradient>
</defs>
</svg>
